HIERARCHY
ROOT Hips
{
    OFFSET   0.000000   0.000000   0.000000
    CHANNELS 6 Xposition Yposition Zposition Zrotation Xrotation Yrotation
    JOINT Chest
    {
        OFFSET   0.000000   8.007230   0.000000
        CHANNELS 3 Zrotation Xrotation Yrotation
        JOINT Chest2
        {
            OFFSET   0.000000  22.077100   0.000000
            CHANNELS 3 Zrotation Xrotation Yrotation
            JOINT Neck
            {
                OFFSET   0.000000  23.254800  -0.000021
                CHANNELS 3 Zrotation Xrotation Yrotation
                JOINT Head
                {
                    OFFSET   0.000000  14.370000   1.956610
                    CHANNELS 3 Zrotation Xrotation Yrotation
                    End Site
                    {
                        OFFSET   0.000000  19.566000   0.000000
                    }
                }
            }
            JOINT LeftCollar
            {
                OFFSET   3.911900  19.017000  -0.467063
                CHANNELS 3 Zrotation Xrotation Yrotation
                JOINT LeftShoulder
                {
                    OFFSET  10.383700   0.000000   0.000000
                    CHANNELS 3 Zrotation Xrotation Yrotation
                    JOINT LeftElbow
                    {
                        OFFSET  26.662100   0.001529   0.000325
                        CHANNELS 3 Zrotation Xrotation Yrotation
                        JOINT LeftWrist
                        {
                            OFFSET  28.869000  -0.000011  -0.000096
                            CHANNELS 3 Zrotation Xrotation Yrotation
                            JOINT LeftFinger0
                            {
                                OFFSET   2.044650  -2.323460   3.252850
                                CHANNELS 3 Zrotation Xrotation Yrotation
                                JOINT LeftFinger01
                                {
                                    OFFSET   3.088130   0.000000   0.000000
                                    CHANNELS 3 Zrotation Xrotation Yrotation
                                    JOINT LeftFinger02
                                    {
                                        OFFSET   2.639460   0.000000   0.000000
                                        CHANNELS 3 Zrotation Xrotation Yrotation
                                        End Site
                                        {
                                            OFFSET   2.582190   0.000000   0.000000
                                        }
                                    }
                                }
                            }
                            JOINT LeftFinger1
                            {
                                OFFSET   8.364480   0.000000   3.252850
                                CHANNELS 3 Zrotation Xrotation Yrotation
                                JOINT LeftFinger11
                                {
                                    OFFSET   4.646930   0.000000   0.000000
                                    CHANNELS 3 Zrotation Xrotation Yrotation
                                    JOINT LeftFinger12
                                    {
                                        OFFSET   2.323460   0.000000   0.000000
                                        CHANNELS 3 Zrotation Xrotation Yrotation
                                        End Site
                                        {
                                            OFFSET   2.273050   0.000000   0.000000
                                        }
                                    }
                                }
                            }
                            JOINT LeftFinger2
                            {
                                OFFSET   8.364480   0.000016   1.078090
                                CHANNELS 3 Zrotation Xrotation Yrotation
                                JOINT LeftFinger21
                                {
                                    OFFSET   5.111620   0.000000   0.000000
                                    CHANNELS 3 Zrotation Xrotation Yrotation
                                    JOINT LeftFinger22
                                    {
                                        OFFSET   2.788160   0.000017   0.000000
                                        CHANNELS 3 Zrotation Xrotation Yrotation
                                        End Site
                                        {
                                            OFFSET   2.727660   0.000000   0.000000
                                        }
                                    }
                                }
                            }
                            JOINT LeftFinger3
                            {
                                OFFSET   7.899780   0.000015  -1.078090
                                CHANNELS 3 Zrotation Xrotation Yrotation
                                JOINT LeftFinger31
                                {
                                    OFFSET   4.646920   0.000000   0.000000
                                    CHANNELS 3 Zrotation Xrotation Yrotation
                                    JOINT LeftFinger32
                                    {
                                        OFFSET   2.323470   0.000000   0.000000
                                        CHANNELS 3 Zrotation Xrotation Yrotation
                                        End Site
                                        {
                                            OFFSET   2.273050   0.000000   0.000000
                                        }
                                    }
                                }
                            }
                            JOINT LeftFinger4
                            {
                                OFFSET   7.435090   0.000000  -3.252850
                                CHANNELS 3 Zrotation Xrotation Yrotation
                                JOINT LeftFinger41
                                {
                                    OFFSET   3.717550   0.000000   0.000000
                                    CHANNELS 3 Zrotation Xrotation Yrotation
                                    JOINT LeftFinger42
                                    {
                                        OFFSET   1.858760   0.000000   0.000000
                                        CHANNELS 3 Zrotation Xrotation Yrotation
                                        End Site
                                        {
                                            OFFSET   1.818440   0.000000   0.000000
                                        }
                                    }
                                }
                            }
                        }
                    }
                }
            }
            JOINT RightCollar
            {
                OFFSET  -3.911900  19.017000  -0.467062
                CHANNELS 3 Zrotation Xrotation Yrotation
                JOINT RightShoulder
                {
                    OFFSET -10.383700   0.000015   0.000000
                    CHANNELS 3 Zrotation Xrotation Yrotation
                    JOINT RightElbow
                    {
                        OFFSET -26.662100   0.001341   0.000385
                        CHANNELS 3 Zrotation Xrotation Yrotation
                        JOINT RightWrist
                        {
                            OFFSET -28.869000   0.000025  -0.000080
                            CHANNELS 3 Zrotation Xrotation Yrotation
                            JOINT RightFinger0
                            {
                                OFFSET  -2.044650  -2.323490   3.252850
                                CHANNELS 3 Zrotation Xrotation Yrotation
                                JOINT RightFinger01
                                {
                                    OFFSET  -3.088130   0.000000   0.000000
                                    CHANNELS 3 Zrotation Xrotation Yrotation
                                    JOINT RightFinger02
                                    {
                                        OFFSET  -2.639460   0.000000   0.000000
                                        CHANNELS 3 Zrotation Xrotation Yrotation
                                        End Site
                                        {
                                            OFFSET  -2.582190   0.000000   0.000000
                                        }
                                    }
                                }
                            }
                            JOINT RightFinger1
                            {
                                OFFSET  -8.364480   0.000000   3.252850
                                CHANNELS 3 Zrotation Xrotation Yrotation
                                JOINT RightFinger11
                                {
                                    OFFSET  -4.646930   0.000000   0.000000
                                    CHANNELS 3 Zrotation Xrotation Yrotation
                                    JOINT RightFinger12
                                    {
                                        OFFSET  -2.323470   0.000000   0.000000
                                        CHANNELS 3 Zrotation Xrotation Yrotation
                                        End Site
                                        {
                                            OFFSET  -2.273050   0.000000   0.000000
                                        }
                                    }
                                }
                            }
                            JOINT RightFinger2
                            {
                                OFFSET  -8.364480   0.000000   1.078090
                                CHANNELS 3 Zrotation Xrotation Yrotation
                                JOINT RightFinger21
                                {
                                    OFFSET  -5.111610   0.000000   0.000000
                                    CHANNELS 3 Zrotation Xrotation Yrotation
                                    JOINT RightFinger22
                                    {
                                        OFFSET  -2.788160   0.000000   0.000000
                                        CHANNELS 3 Zrotation Xrotation Yrotation
                                        End Site
                                        {
                                            OFFSET  -2.727660   0.000000   0.000000
                                        }
                                    }
                                }
                            }
                            JOINT RightFinger3
                            {
                                OFFSET  -7.899780   0.000000  -1.078090
                                CHANNELS 3 Zrotation Xrotation Yrotation
                                JOINT RightFinger31
                                {
                                    OFFSET  -4.646920   0.000000   0.000000
                                    CHANNELS 3 Zrotation Xrotation Yrotation
                                    JOINT RightFinger32
                                    {
                                        OFFSET  -2.323470   0.000000   0.000000
                                        CHANNELS 3 Zrotation Xrotation Yrotation
                                        End Site
                                        {
                                            OFFSET  -2.273050   0.000000   0.000000
                                        }
                                    }
                                }
                            }
                            JOINT RightFinger4
                            {
                                OFFSET  -7.435090   0.000000  -3.252850
                                CHANNELS 3 Zrotation Xrotation Yrotation
                                JOINT RightFinger41
                                {
                                    OFFSET  -3.717550   0.000000   0.000000
                                    CHANNELS 3 Zrotation Xrotation Yrotation
                                    JOINT RightFinger42
                                    {
                                        OFFSET  -1.858770   0.000000   0.000000
                                        CHANNELS 3 Zrotation Xrotation Yrotation
                                        End Site
                                        {
                                            OFFSET  -1.818440   0.000000   0.000000
                                        }
                                    }
                                }
                            }
                        }
                    }
                }
            }
        }
    }
    JOINT LeftHip
    {
        OFFSET   9.783010   0.000000   0.000000
        CHANNELS 3 Zrotation Xrotation Yrotation
        JOINT LeftKnee
        {
            OFFSET   0.000070 -41.789100   0.000028
            CHANNELS 3 Zrotation Xrotation Yrotation
            JOINT LeftAnkle
            {
                OFFSET   0.000087 -41.133200  -0.000100
                CHANNELS 3 Zrotation Xrotation Yrotation
                JOINT LeftToe
                {
                    OFFSET   0.000000  -6.358960  14.674500
                    CHANNELS 3 Zrotation Xrotation Yrotation
                    End Site
                    {
                        OFFSET   0.000000   0.000000   3.913200
                    }
                }
            }
        }
    }
    JOINT RightHip
    {
        OFFSET  -9.783020   0.000000   0.000000
        CHANNELS 3 Zrotation Xrotation Yrotation
        JOINT RightKnee
        {
            OFFSET   0.000044 -41.789100  -0.000870
            CHANNELS 3 Zrotation Xrotation Yrotation
            JOINT RightAnkle
            {
                OFFSET  -0.000090 -41.133200  -0.000245
                CHANNELS 3 Zrotation Xrotation Yrotation
                JOINT RightToe
                {
                    OFFSET   0.000000  -6.358960  14.674500
                    CHANNELS 3 Zrotation Xrotation Yrotation
                    End Site
                    {
                        OFFSET   0.000000   0.000000   3.913200
                    }
                }
            }
        }
    }
}
MOTION
Frames: 6
Frame Time:   0.016667
 -2.758800  87.502400  -3.696740   1.238630 -30.162200  -6.514680   4.548510  21.714500  -4.681730  12.669900  42.815600 -12.905900   4.242690   2.997770  -0.222152   7.023010   5.980920   5.644790  19.549600   1.610100   7.521640 -55.914800   3.152430 -85.444900  -8.524690 -33.486300 -112.630000 -27.788700 -11.641000 -16.762800  35.113700  34.577500 -74.604500 -33.380900  -0.000191   0.000087 -11.690400  -0.004109   0.003148 -46.686300   3.385330  -3.186700 -38.274900  -0.001340   0.005273 -28.180400  -0.003990   0.001950 -40.551600  -3.574060   4.173160 -54.363100  -0.007268   0.004195 -37.485700  -0.009090   0.006542 -28.408400  -4.902090   8.974640 -42.955400  -0.002333   0.001451 -28.608300  -0.001948   0.003090 -32.293200 -12.648900  19.109200 -51.646200  -0.003228   0.000087 -34.396400  -0.001824   0.001634 -16.176700  -2.884890   1.267960  85.799900  -3.812500  62.122500   0.924292 -30.949400 119.314000  15.303900  -9.200880  25.507500 -55.035900  52.401100 103.305000  12.794000   0.000081  -0.005840   1.397010  -0.000123  -0.001858  40.827300   7.757220   8.879210  33.897600  -0.000966  -0.000768  24.041700  -0.006393  -0.000295  28.726500  -0.691657  -1.262090  39.695300   0.002228  -0.000973  26.437100  -0.000906  -0.009096  28.004400  -4.236580  -7.908540  34.190600   0.002433   0.006738  22.770900   0.003771   0.000000  31.787300  -7.800610 -12.353200  48.949000   0.002029  -0.002048  32.600000  -0.004116   0.000184   1.276100  20.509600   4.162350  -0.365740  24.038100  12.820500  -6.319410 -13.645100   3.254500  -0.000000   0.000000  -0.000000  -4.028820  16.822600  -8.231380  -6.021250  25.048300  -3.813210   3.217330 -12.124700   3.899440   0.000000   0.000000   0.000000
 -2.717890  87.501900  -3.705200   1.204150 -30.158100  -6.587380   4.594050  21.709600  -4.636000  12.748200  42.803500 -12.822600   4.321560   2.860310  -0.215854   7.148640   5.702980   5.899320  19.575900   1.639050   7.453210 -55.709700   2.854120 -85.691100  -8.565490 -33.736900 -112.722000 -27.940800 -11.444000 -16.653300  35.069100  34.522000 -74.541800 -33.420500  -0.000242  -0.000010 -11.710200  -0.004101   0.003206 -46.644200   3.372750  -3.179620 -38.239900  -0.001568   0.005304 -28.146400  -0.004072   0.002005 -40.459400  -3.573980   4.186220 -54.358900  -0.007332   0.004275 -37.458500  -0.009209   0.006581 -28.407600  -4.904280   8.978950 -42.881600  -0.002349   0.001474 -28.559100  -0.001999   0.003071 -32.222000 -12.644600  19.152600 -51.545600  -0.003210   0.000147 -34.329300  -0.001857   0.001663 -16.126200  -2.819380   1.260570  85.856200  -3.794480  62.095200   0.938228 -30.945900 119.349000  15.171200  -9.345780  25.895400 -55.210500  52.494900 103.525000  12.593300   0.000119  -0.005904   1.296680  -0.000179  -0.001849  40.861300   7.793820   8.908870  33.925300  -0.000956  -0.000741  24.067200  -0.006394  -0.000374  28.726000  -0.688452  -1.257610  39.698300   0.002310  -0.000998  26.439100  -0.000852  -0.009234  28.001800  -4.228610  -7.895950  34.165900   0.002438   0.006960  22.754500   0.003821  -0.000041  31.792600  -7.751160 -12.275900  48.943400   0.002075  -0.002050  32.596300  -0.004201   0.000148   1.240870  20.501900   4.178280  -0.371843  24.059400  12.839600  -6.283470 -13.675300   3.308700   0.000000   0.000000   0.000000  -4.045720  16.807400  -8.226360  -6.052730  25.048000  -3.773260   3.245290 -12.114700   3.936930   0.000000   0.000000  -0.000000
 -2.680320  87.501900  -3.712610   1.169040 -30.151500  -6.658450   4.642400  21.697500  -4.592990  12.833200  42.781200 -12.745600   4.386660   2.735850  -0.209594   7.252050   5.451800   6.143600  19.591600   1.674240   7.384710 -55.513700   2.587660 -85.923400  -8.578110 -33.968600 -112.810000 -28.049600 -11.271100 -16.534200  35.036200  34.461200 -74.448100 -33.460300  -0.000292  -0.000107 -11.730100  -0.004093   0.003265 -46.562400   3.344410  -3.162020 -38.171900  -0.001794   0.005336 -28.080300  -0.004155   0.002061 -40.353800  -3.573900   4.201220 -54.354000  -0.007398   0.004352 -37.427100  -0.009328   0.006621 -28.406600  -4.906830   8.984380 -42.790800  -0.002359   0.001498 -28.498600  -0.002051   0.003054 -32.138800 -12.639700  19.203200 -51.428000  -0.003188   0.000215 -34.251000  -0.001886   0.001688 -16.074900  -2.758520   1.251550  85.896000  -3.776400  62.074800   0.940156 -30.940300 119.377000  15.043500  -9.523170  26.226900 -55.295900  52.540900 103.632000  12.459400   0.000160  -0.005968   1.229720  -0.000237  -0.001840  40.885400   7.808520   8.917310  33.951100  -0.000946  -0.000714  24.090900  -0.006394  -0.000456  28.725600  -0.687994  -1.256970  39.701300   0.002393  -0.001023  26.441100  -0.000798  -0.009373  28.000600  -4.227470  -7.894160  34.154200   0.002442   0.007180  22.746700   0.003871  -0.000078  31.798900  -7.725160 -12.233600  48.942600   0.002121  -0.002053  32.595800  -0.004285   0.000106   1.212050  20.492300   4.194160  -0.373473  24.077100  12.850500  -6.249720 -13.705400   3.364450   0.000000   0.000000  -0.000000  -4.053990  16.793400  -8.223190  -6.079220  25.039500  -3.734970   3.273000 -12.099200   3.976680  -0.000000   0.000000  -0.000000
 -2.644150  87.502100  -3.719280   1.129900 -30.139200  -6.727920   4.691780  21.682100  -4.554430  12.919500  42.749500 -12.675500   4.427960   2.632990  -0.203766   7.319500   5.245020   6.393810  19.601600   1.689960   7.296440 -55.320500   2.366850 -86.103000  -8.545840 -34.197100 -112.876000 -28.140900 -11.125100 -16.418300  35.023100  34.389300 -74.291700 -33.501300  -0.000340  -0.000099 -11.750600  -0.004100   0.003317 -46.472800   3.301320  -3.129540 -38.096800  -0.002016   0.005370 -28.007500  -0.004248   0.002127 -40.209400  -3.573800   4.221750 -54.346800  -0.007479   0.004429 -37.383900  -0.009434   0.006660 -28.405000  -4.911630   8.993850 -42.632400  -0.002355   0.001515 -28.393100  -0.002108   0.003041 -32.011700 -12.632400  19.280400 -51.248700  -0.003169   0.000288 -34.131600  -0.001916   0.001720 -16.028400  -2.712520   1.233370  85.931900  -3.745850  62.045000   0.897132 -30.926700 119.390000  14.933200  -9.777850  26.501500 -55.340600  52.564700 103.689000  12.350600   0.000210  -0.006041   1.175270  -0.000307  -0.001828  40.896600   7.774940   8.873990  33.964700  -0.000934  -0.000693  24.103400  -0.006394  -0.000538  28.723400  -0.730898  -1.335700  39.698000   0.002476  -0.001055  26.438900  -0.000742  -0.009513  27.997800  -4.249620  -7.936180  34.153100   0.002443   0.007401  22.746000   0.003921  -0.000126  31.830600  -7.731690 -12.238600  48.993100   0.002171  -0.002059  32.629500  -0.004372   0.000041   1.189180  20.479300   4.200940  -0.374702  24.090200  12.865500  -6.219050 -13.728800   3.419090  -0.000000   0.000000   0.000000  -4.058140  16.782200  -8.213330  -6.089990  25.018100  -3.715360   3.295590 -12.078400   4.020800  -0.000000   0.000000   0.000000
 -2.609400  87.503600  -3.725670   1.084220 -30.121600  -6.802890   4.742460  21.662500  -4.523070  13.013600  42.707900 -12.624900   4.443900   2.555960  -0.198488   7.340950   5.091020   6.660570  19.604200   1.706520   7.211930 -55.155700   2.185020 -86.236300  -8.546460 -34.383100 -112.962000 -28.151100 -10.994300 -16.280100  35.040500  34.324400 -74.137700 -33.524400  -0.000387  -0.000091 -11.762200  -0.004108   0.003367 -46.369300   3.259140  -3.102470 -38.010600  -0.002236   0.005406 -27.923900  -0.004340   0.002193 -40.048800  -3.573690   4.244580 -54.338600  -0.007560   0.004505 -37.335600  -0.009537   0.006700 -28.403400  -4.916550   9.003250 -42.475600  -0.002352   0.001532 -28.288700  -0.002168   0.003028 -31.882400 -12.624900  19.358900 -51.066400  -0.003150   0.000361 -34.010200  -0.001946   0.001754 -15.989800  -2.680210   1.216200  85.938000  -3.702260  62.024200   0.862259 -30.917700 119.395000  14.841900 -10.074400  26.647300 -55.346800  52.568100 103.697000  12.303100   0.000262  -0.006117   1.151520  -0.000378  -0.001816  40.929300   7.671660   8.750220  33.969400  -0.000922  -0.000675  24.107600  -0.006394  -0.000623  28.718100  -0.834845  -1.525780  39.677900   0.002561  -0.001088  26.425500  -0.000687  -0.009650  27.986600  -4.320650  -8.070860  34.151900   0.002444   0.007620  22.745200   0.003971  -0.000178  31.885200  -7.777330 -12.273500  49.085200   0.002221  -0.002067  32.690800  -0.004460   0.000000   1.169040  20.462800   4.202440  -0.375707  24.100000  12.884600  -6.188890 -13.748200   3.479360   0.000000   0.000000   0.000000  -4.060650  16.772900  -8.202250  -6.099390  24.983500  -3.698590   3.315440 -12.051700   4.067500  -0.000000   0.000000  -0.000000
 -2.575210  87.508200  -3.732140   1.032000 -30.100100  -6.890530   4.793770  21.639400  -4.501370  13.116800  42.657600 -12.601900   4.418840   2.513610  -0.193859   7.294620   5.009020   6.973350  19.593700   1.737840   7.141020 -55.039100   2.030620 -86.324000  -8.568940 -34.510700 -113.081000 -28.074700 -10.871100 -16.093300  35.115400  34.332000 -74.037300 -33.518200  -0.000432  -0.000158 -11.758200  -0.004110   0.003421 -46.246500   3.240320  -3.099030 -37.909700  -0.002452   0.005443 -27.826200  -0.004420   0.002250 -39.877400  -3.573600   4.268950 -54.329400  -0.007629   0.004583 -37.283700  -0.009647   0.006741 -28.402400  -4.920110   9.008840 -42.382800  -0.002352   0.001551 -28.226900  -0.002231   0.003013 -31.787300 -12.618900  19.416700 -50.932200  -0.003132   0.000429 -33.920800  -0.001975   0.001790 -15.966400  -2.665850   1.209370  85.889400  -3.637390  62.016600   0.815684 -30.930700 119.350000  14.793400 -10.397600  26.668200 -55.307100  52.547000 103.647000  12.331400   0.000310  -0.006194   1.165670  -0.000442  -0.001807  40.935900   7.479830   8.534560  33.950800  -0.000908  -0.000660  24.090600  -0.006394  -0.000715  28.709700  -0.995390  -1.818450  39.613900   0.002648  -0.001118  26.382900  -0.000633  -0.009782  27.961300  -4.452290  -8.321080  34.102700   0.002447   0.007831  22.712400   0.004021  -0.000232  31.917000  -7.893880 -12.426100  49.166200   0.002268  -0.002072  32.744700  -0.004548  -0.000000   1.150600  20.444200   4.190080  -0.379081  24.105100  12.914100  -6.156250 -13.763000   3.552630  -0.000000   0.000000  -0.000000  -4.053090  16.766400  -8.190990  -6.111860  24.933600  -3.676270   3.333060 -12.018600   4.115660  -0.000000   0.000000   0.000000
